<svg xmlns="http://www.w3.org/2000/svg" version="1.1" xmlns:xlink="http://www.w3.org/1999/xlink" width="512" height="512" x="0" y="0" viewBox="0 0 100 100" style="enable-background:new 0 0 512 512" xml:space="preserve"><defs><linearGradient xlink:href="#a" id="b" x1=".017" x2="92.034" y1="-4.913" y2="95.927" gradientUnits="userSpaceOnUse"></linearGradient><linearGradient xlink:href="#a" id="c" x1="12.069" x2="104.085" y1="-15.91" y2="84.93" gradientUnits="userSpaceOnUse"></linearGradient><linearGradient xlink:href="#a" id="d" x1="-12.069" x2="79.948" y1="6.116" y2="106.956" gradientUnits="userSpaceOnUse"></linearGradient></defs><g><linearGradient id="a"><stop offset="0" stop-color="#97e0ff"></stop><stop offset="1" stop-color="#1075ff"></stop></linearGradient><linearGradient xlink:href="#a" id="b" x1=".017" x2="92.034" y1="-4.913" y2="95.927" gradientUnits="userSpaceOnUse"></linearGradient><linearGradient xlink:href="#a" id="c" x1="12.069" x2="104.085" y1="-15.91" y2="84.93" gradientUnits="userSpaceOnUse"></linearGradient><linearGradient xlink:href="#a" id="d" x1="-12.069" x2="79.948" y1="6.116" y2="106.956" gradientUnits="userSpaceOnUse"></linearGradient><path fill="url(&quot;#b&quot;)" d="M50.158 19.05 40.131 79.217c-.423 2.744 1.372 5.278 4.116 5.805.317 0 .528.106.845.106 2.427 0 4.539-1.689 4.96-4.222l10.029-60.167c.422-2.744-1.373-5.278-4.117-5.805-2.85-.423-5.383 1.372-5.806 4.116z" opacity="1" data-original="url(#b)"></path><path fill="url(&quot;#c&quot;)" d="m68.208 34.884 16.89 15.094L66.73 66.234c-2.112 1.794-2.217 4.96-.423 7.072.95 1.16 2.323 1.689 3.695 1.689 1.16 0 2.428-.423 3.378-1.267l22.377-19.95c2.323-2.006 2.323-5.7 0-7.706l-20.9-18.683c-2.11-1.794-5.277-1.689-7.072.422-1.9 2.111-1.689 5.278.422 7.073z" opacity="1" data-original="url(#c)"></path><path fill="url(&quot;#d&quot;)" d="M28.625 73.728c1.372 0 2.744-.528 3.694-1.689 1.795-2.111 1.69-5.278-.422-7.072L15.008 49.872l18.367-16.255c2.111-1.795 2.217-4.961.422-7.072s-4.96-2.217-7.072-.423L4.242 46.072c-2.323 2.006-2.323 5.7 0 7.706l21.005 18.683c.95.845 2.217 1.267 3.378 1.267z" opacity="1" data-original="url(#d)"></path></g></svg>